<svg version="1.1" class="highcharts-root" style="font-family:&quot;Lucida Grande&quot;, &quot;Lucida Sans Unicode&quot;, Arial, Helvetica, sans-serif;font-size:12px;" xmlns="http://www.w3.org/2000/svg" width="250" height="82" viewBox="0 0 250 82"><desc>Created with Highcharts 9.1.2</desc><defs><clipPath id="highcharts-q6be8a2-509-"><rect x="0" y="0" width="230" height="47" fill="none"></rect></clipPath><clipPath id="highcharts-q6be8a2-510-"><rect x="0" y="0" width="230" height="57" fill="none"></rect></clipPath></defs><rect fill="rgba(0, 0, 0, 0)" class="highcharts-background" x="0" y="0" width="250" height="82" rx="0" ry="0"></rect><rect fill="none" class="highcharts-plot-background" x="10" y="10" width="230" height="47"></rect><rect fill="none" class="highcharts-plot-border" data-z-index="1" x="10" y="10" width="230" height="47"></rect><g class="highcharts-grid highcharts-xaxis-grid" data-z-index="1"><path fill="none" stroke-dasharray="none" data-z-index="1" class="highcharts-grid-line" d="M 98.5 10 L 98.5 57" opacity="1"></path><path fill="none" stroke-dasharray="none" data-z-index="1" class="highcharts-grid-line" d="M 213.5 10 L 213.5 57" opacity="1"></path></g><g class="highcharts-axis highcharts-xaxis" data-z-index="2"><path fill="none" class="highcharts-tick" stroke="rgba(0, 0, 0, 0)" stroke-width="1" d="M 98.5 57 L 98.5 67" opacity="1"></path><path fill="none" class="highcharts-tick" stroke="rgba(0, 0, 0, 0)" stroke-width="1" d="M 213.5 57 L 213.5 67" opacity="1"></path><path fill="none" class="highcharts-axis-line" stroke="rgba(0, 0, 0, 0)" stroke-width="1" data-z-index="7" d="M 10 57.5 L 240 57.5"></path></g><g class="highcharts-series-group" data-z-index="3"><g class="highcharts-series highcharts-series-0 highcharts-line-series" data-z-index="0.1" opacity="1" transform="translate(10,10) scale(1 1)" clip-path="url(#highcharts-q6be8a2-509-)"><path fill="none" d="M 0 22.942157599282126 L 2.404181184669 28.303574782445388 L 4.808362369338 29.26355412258172 L 7.212543554007 38.17677226152448 L 9.616724738676 43.08333333333327 L 12.020905923345 40.96353221060524 L 14.425087108014 35.45744381143177 L 16.829268292683 38.592395500740764 L 19.233449477352 38.96142970429248 L 21.637630662021 35.04304659946988 L 24.04181184669 32.48310169243925 L 26.445993031359 27.261451616269138 L 28.850174216028 28.807471983972857 L 31.254355400697 26.546677726997626 L 33.658536585366 21.809308416285717 L 36.062717770035 19.24078131847484 L 38.466898954704 18.7417882259646 L 40.871080139373 23.656931488553635 L 43.275261324042 26.433883219599764 L 45.679442508711 21.036911246060967 L 48.08362369338 22.3217878085936 L 50.487804878049 18.86071286963409 L 52.891986062718 14.499733926000097 L 55.296167247387 12.682761535090485 L 57.700348432056 3.9166666666667282 L 60.104529616725 13.772699764185333 L 62.508710801394 7.597200484150342 L 64.912891986063 11.665158914000735 L 67.317073170732 14.058364114443094 L 69.721254355401 15.513658465326838 L 72.12543554007 17.508404808113756 L 74.529616724739 16.865966526847348 L 76.933797909408 13.64887101149862 L 79.337979094077 14.561035288716347 L 81.742160278746 14.404103800162709 L 84.146341463415 17.112398004966746 L 86.550522648084 18.413212921805464 L 88.954703832753 19.693185375320873 L 91.358885017422 19.904062063064735 L 93.763066202091 21.781109789436385 L 96.16724738676 20.266966130345008 L 98.571428571429 24.25523278866409 L 100.9756097561 23.780760241240355 L 103.37979094077 23.68758216991176 L 105.78397212544 26.21810242283849 L 108.1881533101 26.16170516913947 L 110.59233449477 25.31084225463799 L 112.99651567944 25.416280598510014 L 115.40069686411 23.584595880548353 L 117.80487804878 24.905027233456345 L 120.20905923345 23.57723971702251 L 122.61324041812 20.210568876645986 L 125.01742160279 19.676020993760215 L 127.42160278746 22.148917965733883 L 129.82578397213 23.461993155115852 L 132.22996515679 21.71735637221134 L 134.63414634146 24.952842296375128 L 137.03832752613 27.929636469876264 L 139.4425087108 26.88751330370001 L 141.84668989547 28.15277343016338 L 144.25087108014 26.424075001565125 L 146.65505226481 24.401130031928876 L 149.05923344948 20.889787975541967 L 151.46341463415 24.077458836786967 L 153.86759581882 26.473116091738127 L 156.27177700348 27.590026920428095 L 158.67595818815 29.057581543855264 L 161.08013937282 27.96519126025162 L 163.48432055749 25.02149982261722 L 165.88850174216 27.208732444333126 L 168.29268292683 27.47355433126722 L 170.6968641115 25.522944969636253 L 173.10104529617 27.002759865606492 L 175.50522648084 28.697129531083608 L 177.90940766551 28.72410213067872 L 180.31358885017 29.984458148124858 L 182.71777003484 29.36163630292772 L 185.12195121951 26.45104760116024 L 187.52613240418 27.147431081616876 L 189.93031358885 27.96396523299722 L 192.33449477352 28.334225463803513 L 194.73867595819 26.524609236419742 L 197.14285714286 28.437211753166743 L 199.54703832753 28.004424132389982 L 201.9512195122 29.592129426740858 L 204.35540069686 27.494396794590887 L 206.75958188153 25.987609299025355 L 209.1637630662 23.926657484505135 L 211.56794425087 24.39132181389424 L 213.97212543554 26.954944802687887 L 216.37630662021 27.564280348087376 L 218.78048780488 27.224670798639387 L 221.18466898955 29.290526722177013 L 223.58885017422 30.542300548842732 L 225.99303135889 31.99023873620063 L 228.39721254355 32.519882510068996" class="highcharts-graph" data-z-index="1" stroke="#ff4e4d" stroke-width="2" stroke-linejoin="round" stroke-linecap="round"></path></g><g class="highcharts-markers highcharts-series-0 highcharts-line-series" data-z-index="0.1" opacity="1" transform="translate(10,10) scale(1 1)" clip-path="none"></g></g><text x="125" text-anchor="middle" class="highcharts-title" data-z-index="4" style="color:#333333;font-size:16px;fill:#333333;" y="22"></text><text x="125" text-anchor="middle" class="highcharts-subtitle" data-z-index="4" style="color:#666666;fill:#666666;" y="24"></text><text x="10" text-anchor="start" class="highcharts-caption" data-z-index="4" style="color:#666666;fill:#666666;" y="79"></text><g class="highcharts-axis-labels highcharts-xaxis-labels" data-z-index="7"></g></svg>